<?xml version="1.0" encoding="UTF-8"?>
<svg width="1200pt" height="1200pt" version="1.1" viewBox="0 0 1200 1200" xmlns="http://www.w3.org/2000/svg">
 <path d="m812 1067 108.51-475.41 47.852 60-114.61 502.11-218.1-105.03 69.145-33.297zm-551.61-298.93-114.6-502.12h242.06l-47.848 60h-118.98l108.51 475.42zm129.77 298.93 439.36-211.59-17.074 74.824-464.04 223.46-53.863-236 69.137 33.297zm380.81-711.05h76.742l321.11 402.67-218.09 105.02 17.078-74.82 107.19-51.621zm-737.63 402.67 150.93-189.26 17.074 74.82-74.18 93.02 439.35 211.58-69.148 33.293zm969.18-256.66-47.848-60 26.477-116.01h-487.66l47.848-60h515.05zm-401.44-455.28 150.94 189.27h-76.742l-74.199-93.039-304.04 381.27-17.078-74.82z"/>
</svg>
