<svg xmlns="http://www.w3.org/2000/svg" width="14.515" height="18.73" viewBox="0 0 14.515 18.73">
  <g id="Group_40" data-name="Group 40" transform="translate(-4.948)">
    <path id="Path_27" data-name="Path 27" d="M1175.04,179.718l-.12-.106a5.394,5.394,0,1,0-8.906,0l-.12.106a8.176,8.176,0,0,0-2.683,6.111v.382l.249.29a9.048,9.048,0,0,0,14.018,0l.249-.29v-.382A8.175,8.175,0,0,0,1175.04,179.718Zm-4.573-7.6a4.42,4.42,0,1,1-4.369,4.42A4.394,4.394,0,0,1,1170.467,172.123Zm0,16.678a8.2,8.2,0,0,1-6.23-2.968,7.157,7.157,0,0,1,2.338-5.346,5.463,5.463,0,0,0,7.785,0,7.157,7.157,0,0,1,2.338,5.346A8.2,8.2,0,0,1,1170.467,188.8Z" transform="translate(-1158.261 -171.097)" fill="#ccc"/>
  </g>
</svg>
