<svg xmlns="http://www.w3.org/2000/svg" width="284.8" height="95.279" viewBox="0 0 284.8 95.279">
  <g id="Group_20" data-name="Group 20" transform="translate(0)">
    <path id="Path_56" data-name="Path 56" d="M1573.984,524.486a25.083,25.083,0,0,1-27.179,0,23.216,23.216,0,0,1-.152-37.856v0a24.856,24.856,0,0,1,27.481,0v0c.177.124.346.257.519.386l6.7-6.7a33.551,33.551,0,0,0-20.568-6.843c-.13,0-.259,0-.389.006s-.259-.006-.39-.006c-18.546,0-32.94,14.129-32.94,32.057s14.306,32.057,32.675,32.057c.218,0,.436-.006.654-.01s.436.01.655.01a33.044,33.044,0,0,0,21.128-7.426l-6.757-6.757C1574.955,523.782,1574.48,524.147,1573.984,524.486Z" transform="translate(-1527.065 -465.016)" fill="#fff"/>
    <path id="Path_57" data-name="Path 57" d="M1657.406,464.222v61.784l.721.721h8.2V455.3Z" transform="translate(-1596.738 -455.302)" fill="#fff"/>
    <path id="Path_58" data-name="Path 58" d="M1703.7,519.769l8.92-8.836v45.531h-8.92Z" transform="translate(-1621.483 -485.039)" fill="#fff"/>
    <path id="Path_59" data-name="Path 59" d="M1793.488,516.018a15.125,15.125,0,0,0-12.894,6.535,12.582,12.582,0,0,0-11.481-6.535,13.64,13.64,0,0,0-10.773,4.953V510.933l-8.92,8.836v36.695h8.92V533.5c0-5.913,3.534-9.619,8.3-9.619,4.415,0,7.506,3.091,7.506,8.92v23.668h9.008V533.5c0-5.917,3.444-9.626,8.3-9.626,4.415,0,7.506,3.091,7.506,8.92v23.668h8.919V531.826C1807.883,521.934,1802.231,516.018,1793.488,516.018Z" transform="translate(-1645.923 -485.039)" fill="#fff"/>
    <path id="Path_60" data-name="Path 60" d="M1922.042,516.018a17.358,17.358,0,0,0-13.247,5.87V510.933l-8.92,8.836v60.548l8.96-8.877-.041-14.976h0v-4.857a17.523,17.523,0,0,0,13.247,5.828c10.862,0,19.958-9.1,19.958-20.753C1942,525.114,1932.9,516.018,1922.042,516.018Zm-1.413,33.558c-.229,0-.457-.006-.683-.018a11.994,11.994,0,0,1-11.15-12.081v-1.439a12.052,12.052,0,0,1,12.154-12.157c.127,0,.255.008.384.015a12.858,12.858,0,0,1-.7,25.68Z" transform="translate(-1726.348 -485.039)" fill="#fff"/>
    <path id="Path_61" data-name="Path 61" d="M1700.662,486.147a5.831,5.831,0,1,1,5.828,5.652A5.676,5.676,0,0,1,1700.662,486.147Z" transform="translate(-1619.86 -468.769)" fill="#fff"/>
    <path id="Path_62" data-name="Path 62" d="M2010.53,519.769l8.919-8.836v45.531h-8.919Z" transform="translate(-1785.497 -485.039)" fill="#fff"/>
    <path id="Path_63" data-name="Path 63" d="M2007.494,486.147a5.831,5.831,0,1,1,5.829,5.652A5.676,5.676,0,0,1,2007.494,486.147Z" transform="translate(-1783.874 -468.769)" fill="#fff"/>
    <g id="Group_19" data-name="Group 19" transform="translate(243.429 31.025)">
      <path id="Path_64" data-name="Path 64" d="M2100.065,534.994l-5.844,5.857-9,9.025-4.579-4.351-3.1,3.087,7.72,7.714,11.551-11.677,6.073-6.139A20.767,20.767,0,0,0,2100.065,534.994Z" transform="translate(-2064.743 -528.926)" fill="#fff"/>
      <path id="Path_65" data-name="Path 65" d="M2100.065,534.994l-5.844,5.857-9,9.025-4.579-4.351-3.1,3.087,7.72,7.714,11.551-11.677,6.073-6.139A20.767,20.767,0,0,0,2100.065,534.994Z" transform="translate(-2064.743 -528.926)" fill="#fff"/>
      <path id="Path_66" data-name="Path 66" d="M2089.209,533.333,2084.59,538a14.5,14.5,0,0,1,.648,2.875,14.612,14.612,0,1,1-14.5-12.851,14.548,14.548,0,0,1,8.841,3l4.325-4.334a20.7,20.7,0,1,0,5.3,6.645Z" transform="translate(-2050.052 -521.957)" fill="#fff"/>
    </g>
  </g>
</svg>
