<svg xmlns="http://www.w3.org/2000/svg" width="20.333" height="20.143" viewBox="0 0 20.333 20.143">
  <g id="Group_104" data-name="Group 104" transform="translate(-432.141 -171.097)">
    <path id="Path_63" data-name="Path 63" d="M449.846,179.61a.452.452,0,0,0-.148.352c.005,1.791,0,7.083.006,8.874,0,.132-.033.172-.169.172-5.117,0-9.887,0-15,0-.049,0-.1-.006-.148-.009V173.332h10.285L446.9,171.1h-.023c-6.583,0-7.959,0-14.542,0-.191,0-.191,0-.191.186q0,9.888,0,19.776c0,.181,0,.182.18.182h19.6V177.53c-.042.034-.069.052-.091.074C451.171,178.273,450.512,178.945,449.846,179.61Z" transform="translate(0 0)" fill="#fff"/>
    <g id="Group_103" data-name="Group 103" transform="translate(437.237 171.365)">
      <path id="Path_64" data-name="Path 64" d="M463.515,191.966l-1.273,1.273-.2.2,3.294,3.294.2-.2,1.273-1.273,7.983-7.983-3.294-3.294Z" transform="translate(-461.653 -181.885)" fill="#fff"/>
      <path id="Path_65" data-name="Path 65" d="M459.906,240.881h3.3l-3.3-3.3Z" transform="translate(-459.906 -225.644)" fill="#fff"/>
      <rect id="Rectangle_39" data-name="Rectangle 39" width="2.411" height="4.659" transform="translate(10.238 1.705) rotate(-45)" fill="#fff"/>
    </g>
  </g>
</svg>
