<svg xmlns="http://www.w3.org/2000/svg" width="28.573" height="26.08" viewBox="0 0 28.573 26.08">
  <path id="Path_12" data-name="Path 12" d="M210.234,187.306a5.1,5.1,0,0,0-.53.028l-4.629-8.034a5.041,5.041,0,1,0-8.148.032l-4.639,8a5.042,5.042,0,1,0,4.065,7.056h9.275a5.041,5.041,0,1,0,4.607-7.085Zm-9.245-13.339a2.383,2.383,0,0,1,1.183,4.452c-.033.019-.067.037-.1.055l-.081.039q-.068.032-.138.059c-.038.015-.076.029-.115.042l-.087.027q-.065.019-.132.034l-.064.015c-.063.012-.127.022-.192.029l-.06.006c-.07.006-.141.011-.213.011s-.148,0-.22-.011l-.042,0c-.073-.008-.144-.019-.215-.033l-.012,0c-.065-.014-.129-.031-.193-.05l-.046-.014q-.092-.03-.181-.066c-.026-.011-.051-.023-.077-.035l-.092-.044c-.033-.017-.067-.034-.1-.053a2.383,2.383,0,0,1,1.176-4.456Zm-8.081,16.3c.023.013.044.027.066.04a2.4,2.4,0,0,1,.2.137l.028.021c.038.029.074.06.11.091l.014.013a2.416,2.416,0,0,1,.551.724l0,0a2.413,2.413,0,0,1,.111.265l.008.021c.013.039.025.078.036.118s.016.06.023.09.018.076.026.115c.01.054.019.109.025.164,0,.022,0,.043.007.065.006.07.011.14.011.211a2.387,2.387,0,1,1-1.257-2.1Zm12.284,2.079h-8.406a5.043,5.043,0,0,0-2.515-4.36l4.211-7.265a5.024,5.024,0,0,0,5.043-.017l4.193,7.276A5.043,5.043,0,0,0,205.193,192.347Zm5.042,2.385a2.387,2.387,0,0,1-2.385-2.384c0-.071,0-.141.011-.211,0-.021,0-.043.007-.064.006-.056.015-.111.025-.165.007-.037.016-.075.025-.112s.015-.063.024-.094.023-.077.036-.116l.012-.032a2.361,2.361,0,0,1,.107-.253l0-.01a2.412,2.412,0,0,1,.554-.724l.012-.011c.036-.031.072-.061.11-.09l.03-.022a2.386,2.386,0,0,1,.207-.14l.053-.032.043-.025a2.384,2.384,0,1,1,1.126,4.486Z" transform="translate(-186.703 -171.309)" fill="#fff"/>
</svg>
