<svg id="Group_31" data-name="Group 31" xmlns="http://www.w3.org/2000/svg" width="29.874" height="26.13" viewBox="0 0 29.874 26.13">
  <path id="Path_8" data-name="Path 8" d="M2114.185,196.515l3.207,6.869,11.729-6.407-3.207-6.043v-.027l-7.056-3.354v1.387l4.583,2.178-9.262,4.238-9.262-4.238,4.583-2.178v-1.387l-7.056,3.354v.047l-3.2,6.023,11.73,6.407Z" transform="translate(-2099.248 -183.725)" fill="#fff"/>
  <path id="Path_9" data-name="Path 9" d="M2134.8,242.829l-9.08,4.294v-6.046l-.99-2.12-1,2.142v6.024l-9.081-4.294v-2l-1.66-1.058v3.948l11.736,5.577,11.735-5.577v-3.942l-1.661,1.058Z" transform="translate(-2109.79 -223.17)" fill="#fff"/>
  <path id="Path_10" data-name="Path 10" d="M2147.873,172.9h5.321v7.526l1.25-.572V171.67a.573.573,0,0,0-.573-.573H2147.2a.573.573,0,0,0-.573.573v8.182l1.249.572Zm4.9-1.078a.218.218,0,1,1-.218.218A.217.217,0,0,1,2152.778,171.82Zm-3.559.039h2.729a.181.181,0,1,1,0,.361h-2.729a.181.181,0,1,1,0-.361Z" transform="translate(-2135.602 -171.097)" fill="#fff"/>
</svg>
