<svg xmlns="http://www.w3.org/2000/svg" width="25.007" height="26.13" viewBox="0 0 25.007 26.13">
  <path id="Path_11" data-name="Path 11" d="M2374.133,177.039l-12.5-5.942h0l-12.5,5.942v14.245l12.5,5.942,12.5-5.942V177.941h0Zm-13.1-1.491h-.4l-.044.362-.624.1.074.327-.728.045,1.326.683-4.5,2.2.377.173-4.748-2.172,9.869-4.69,4.162,1.978-3.187,1.555-1.6-.786Zm.6,6.23-4.767-2.181,4.483-2.152,1.85.952.1-.321h.416l-.015-.327h.609v-.356l.758-.06-1.724-.847,3.245-1.557,4.911,2.334-9.868,4.515Zm-1.06,12.6-9.324-4.431V179.359l9.324,4.266Zm11.443-4.431-9.323,4.431V183.625l9.323-4.266Z" transform="translate(-2349.126 -171.097)" fill="#fff"/>
</svg>
