<svg id="Group_32" data-name="Group 32" xmlns="http://www.w3.org/2000/svg" width="30.371" height="25.518" viewBox="0 0 30.371 25.518">
  <path id="Path_13" data-name="Path 13" d="M1896.24,177.986l-2.465,2.465,3.776,3.776,2.464,2.464,2.465-2.464,8.2-8.2V171.1l-10.665,10.665Z" transform="translate(-1885.629 -171.097)" fill="#fff"/>
  <path id="Path_14" data-name="Path 14" d="M1887.362,180.309h-.354V196.06a1.772,1.772,0,0,1-.978,1.584l-5.19,2.6v-3.089h-18.89a1.063,1.063,0,0,1-1.063-1.062V183.5a1.063,1.063,0,0,1,1.063-1.063h12.59l2.125-2.125h-16.132a1.771,1.771,0,0,0-1.771,1.771v15.427a1.771,1.771,0,0,0,1.771,1.771h18.181v4.405l3.077-1.541,6.168-3.089.2-.1a1.771,1.771,0,0,0,.978-1.584V182.08A1.771,1.771,0,0,0,1887.362,180.309Z" transform="translate(-1858.762 -178.166)" fill="#fff"/>
</svg>
