<svg xmlns="http://www.w3.org/2000/svg" width="18.554" height="15.926" viewBox="0 0 18.554 15.926">
  <g id="Group_44" data-name="Group 44" transform="translate(0 0)">
    <path id="Path_37" data-name="Path 37" d="M919.317,185.2l-8.074-13.522a1.2,1.2,0,0,0-2.063,0L901.106,185.2a1.2,1.2,0,0,0,1.032,1.818h16.148A1.2,1.2,0,0,0,919.317,185.2Zm-2.09.466H903.2a.451.451,0,0,1-.387-.682l7.015-11.75a.451.451,0,0,1,.774,0l7.015,11.75A.451.451,0,0,1,917.227,185.67Z" transform="translate(-900.935 -171.097)" fill="#fff"/>
    <path id="Path_38" data-name="Path 38" d="M960.461,250.235a1.03,1.03,0,1,0,.518.4A1.016,1.016,0,0,0,960.461,250.235Z" transform="translate(-950.858 -238.967)" fill="#fff"/>
    <path id="Path_39" data-name="Path 39" d="M960.63,209.408a.749.749,0,0,0,.748-.716l.18-4.061a.935.935,0,0,0-.934-.976h0a.935.935,0,0,0-.934.978l.19,4.061A.749.749,0,0,0,960.63,209.408Z" transform="translate(-951.36 -199.039)" fill="#fff"/>
  </g>
</svg>
