<svg xmlns="http://www.w3.org/2000/svg" width="22.361" height="13.5" viewBox="0 0 22.361 13.5">
  <g id="Group_36" data-name="Group 36" transform="translate(0)">
    <path id="Path_21" data-name="Path 21" d="M2312.715,487.823a10.149,10.149,0,0,1,7.224,2.992l3.279,3.279-3.279,3.279a10.217,10.217,0,0,1-14.448,0l-3.279-3.279,3.279-3.279a10.15,10.15,0,0,1,7.224-2.992m0-.479a10.663,10.663,0,0,0-7.563,3.133l-3.617,3.617,3.617,3.617a10.7,10.7,0,0,0,15.126,0l3.617-3.617-3.617-3.617a10.663,10.663,0,0,0-7.563-3.133Z" transform="translate(-2301.535 -487.344)" fill="#777"/>
    <g id="Group_35" data-name="Group 35" transform="translate(5.896 2.035)">
      <path id="Path_22" data-name="Path 22" d="M2353.339,501.186a4.746,4.746,0,1,0,5.284,4.715A5.024,5.024,0,0,0,2353.339,501.186Zm0,6.965a2.4,2.4,0,0,1-2.521-2.25,2.014,2.014,0,0,1,.016-.25,1.488,1.488,0,0,1-.953-1.345,1.588,1.588,0,0,1,1.67-1.491,1.693,1.693,0,0,1,1.507.85c.092-.009.186-.015.28-.015a2.264,2.264,0,1,1,0,4.5Z" transform="translate(-2348.055 -501.186)" fill="#777"/>
    </g>
    <path id="Path_23" data-name="Path 23" d="M2374.208,525.651c-.041,0-.082,0-.122.006a1.668,1.668,0,0,1-1.56,1.56c0,.04-.006.081-.006.122a1.688,1.688,0,1,0,1.688-1.688Z" transform="translate(-2363.028 -520.589)" fill="#777"/>
  </g>
</svg>
