<svg xmlns="http://www.w3.org/2000/svg" width="25.863" height="15.614" viewBox="0 0 25.863 15.614">
  <g id="Group_134" data-name="Group 134" transform="translate(-2155.472 -487.344)">
    <path id="Path_73" data-name="Path 73" d="M2168.4,487.9a11.739,11.739,0,0,1,8.356,3.461l3.792,3.792-3.792,3.792a11.817,11.817,0,0,1-16.711,0l-3.792-3.792,3.792-3.792a11.739,11.739,0,0,1,8.355-3.461m0-.554a12.332,12.332,0,0,0-8.748,3.623l-4.184,4.184,4.184,4.184a12.371,12.371,0,0,0,17.5,0l4.184-4.184-4.184-4.184a12.332,12.332,0,0,0-8.748-3.623Z" transform="translate(0 0)" fill="#ccc"/>
    <g id="Group_133" data-name="Group 133" transform="translate(2162.767 489.515)">
      <path id="Path_74" data-name="Path 74" d="M2207.629,501.186a5.637,5.637,0,1,0,5.637,5.637A5.637,5.637,0,0,0,2207.629,501.186Zm0,8.326a2.689,2.689,0,0,1-2.689-2.689,2.744,2.744,0,0,1,.017-.3,1.781,1.781,0,1,1,2.373-2.373,2.689,2.689,0,1,1,.3,5.361Z" transform="translate(-2201.993 -501.186)" fill="#ccc"/>
    </g>
    <path id="Path_75" data-name="Path 75" d="M2228.258,525.651c-.044,0-.087,0-.13.007a1.779,1.779,0,0,1-1.664,1.664c0,.043-.007.086-.007.13a1.8,1.8,0,1,0,1.8-1.8Z" transform="translate(-59.855 -32.3)" fill="#ccc"/>
  </g>
</svg>
