<svg xmlns="http://www.w3.org/2000/svg" width="18" height="18" viewBox="0 0 18 18">
  <path id="Path_44" data-name="Path 44" d="M1647.389,186.817l-6.734-6.721,3.537-3.543,3.179-3.188a1.318,1.318,0,0,0,0-1.862l-.019-.019a1.313,1.313,0,0,0-1.859,0l-6.722,6.736-3.544-3.537-3.188-3.179a1.318,1.318,0,0,0-1.862,0l-.019.019a1.314,1.314,0,0,0,0,1.859l6.736,6.723-6.719,6.733a1.316,1.316,0,0,0,0,1.86l.019.019a1.316,1.316,0,0,0,1.862,0l6.721-6.734,6.733,6.718a1.316,1.316,0,0,0,1.86,0l.019-.019A1.316,1.316,0,0,0,1647.389,186.817Z" transform="translate(-1629.774 -171.097)" fill="#fff"/>
</svg>
