<svg id="Group_6" data-name="Group 6" xmlns="http://www.w3.org/2000/svg" width="177.029" height="59.224" viewBox="0 0 177.029 59.224">
  <path id="Path_15" data-name="Path 15" d="M406.23,505.183a15.591,15.591,0,0,1-16.894,0,14.431,14.431,0,0,1-.094-23.531v0a15.45,15.45,0,0,1,17.082,0v0c.11.077.215.16.322.24l4.163-4.163a20.855,20.855,0,0,0-12.785-4.253c-.081,0-.161,0-.242,0s-.161,0-.242,0c-11.528,0-20.475,8.783-20.475,19.926a19.908,19.908,0,0,0,20.311,19.926c.136,0,.271,0,.407-.006s.271.006.407.006a20.54,20.54,0,0,0,13.133-4.616l-4.2-4.2C406.833,504.746,406.538,504.972,406.23,505.183Z" transform="translate(-377.065 -468.217)" fill="#104f72"/>
  <path id="Path_16" data-name="Path 16" d="M507.406,460.846v38.4l.448.448h5.1V455.3Z" transform="translate(-469.695 -455.302)" fill="#104f72"/>
  <path id="Path_17" data-name="Path 17" d="M553.7,516.426l5.544-5.493v28.3H553.7Z" transform="translate(-502.594 -494.838)" fill="#104f72"/>
  <path id="Path_18" data-name="Path 18" d="M626.813,514.094a9.4,9.4,0,0,0-8.014,4.062,7.821,7.821,0,0,0-7.136-4.062,8.479,8.479,0,0,0-6.7,3.078v-6.239l-5.544,5.493v22.809h5.544V524.958c0-3.676,2.2-5.979,5.16-5.979,2.745,0,4.666,1.921,4.666,5.544v14.711h5.6V524.962c0-3.678,2.141-5.984,5.16-5.984,2.745,0,4.666,1.921,4.666,5.544v14.711h5.544V523.92C635.76,517.771,632.247,514.094,626.813,514.094Z" transform="translate(-535.088 -494.838)" fill="#104f72"/>
  <path id="Path_19" data-name="Path 19" d="M763.654,514.094a10.789,10.789,0,0,0-8.234,3.649v-6.81l-5.544,5.493v37.636l5.57-5.518-.026-9.309h0v-3.019a10.892,10.892,0,0,0,8.234,3.623,12.881,12.881,0,0,0,0-25.745Zm-.878,20.859q-.214,0-.425-.011a7.455,7.455,0,0,1-6.931-7.509v-.895a7.492,7.492,0,0,1,7.555-7.557q.119,0,.238.009a7.992,7.992,0,0,1-.437,15.962Z" transform="translate(-642.013 -494.838)" fill="#104f72"/>
  <path id="Path_20" data-name="Path 20" d="M550.662,484.008a3.625,3.625,0,1,1,3.623,3.513A3.528,3.528,0,0,1,550.662,484.008Z" transform="translate(-500.436 -473.206)" fill="#104f72"/>
  <path id="Path_21" data-name="Path 21" d="M860.53,516.426l5.544-5.493v28.3H860.53Z" transform="translate(-720.651 -494.838)" fill="#104f72"/>
  <path id="Path_22" data-name="Path 22" d="M857.494,484.008a3.625,3.625,0,1,1,3.623,3.513A3.528,3.528,0,0,1,857.494,484.008Z" transform="translate(-718.494 -473.206)" fill="#104f72"/>
  <g id="Group_5" data-name="Group 5" transform="translate(151.313 19.285)">
    <path id="Path_23" data-name="Path 23" d="M941.54,534.994l-3.633,3.641-5.6,5.61-2.846-2.7-1.928,1.919,4.8,4.8,7.18-7.258,3.775-3.816A12.9,12.9,0,0,0,941.54,534.994Z" transform="translate(-919.584 -531.222)" fill="#104f72"/>
    <path id="Path_24" data-name="Path 24" d="M941.54,534.994l-3.633,3.641-5.6,5.61-2.846-2.7-1.928,1.919,4.8,4.8,7.18-7.258,3.775-3.816A12.9,12.9,0,0,0,941.54,534.994Z" transform="translate(-919.584 -531.222)" fill="#0289c4"/>
    <path id="Path_25" data-name="Path 25" d="M924.391,529.028l-2.871,2.9a9.014,9.014,0,0,1,.4,1.787,9.083,9.083,0,1,1-9.013-7.988,9.042,9.042,0,0,1,5.5,1.862l2.688-2.694a12.867,12.867,0,1,0,3.3,4.131Z" transform="translate(-900.052 -521.957)" fill="#104f72"/>
  </g>
</svg>
