<svg id="Group_34" data-name="Group 34" xmlns="http://www.w3.org/2000/svg" width="21.05" height="20.3" viewBox="0 0 21.05 20.3">
  <path id="Path_17" data-name="Path 17" d="M223.893,506.583l-.721-1.044a2.771,2.771,0,0,1-.532-2.088c.007-.094.013-.191.018-.289a4.179,4.179,0,0,0-.728-2.362l-2.188-3.171a1.944,1.944,0,0,0-2.694-.5l-.039.028a1.913,1.913,0,0,0-.4.4,1.956,1.956,0,0,0-.562-.225,1.9,1.9,0,0,0-1.466.256l-.048.032a1.918,1.918,0,0,0-.531.549,1.954,1.954,0,0,0-.309-.1,1.9,1.9,0,0,0-1.466.256l-.048.032a1.941,1.941,0,0,0-.33.287l-1.257-1.822a2.112,2.112,0,0,0-2.813-.627c-.039.023-.077.048-.114.074h0a2.051,2.051,0,0,0-.727.873,2.1,2.1,0,0,0,.193,2.042l3.6,5.212a2.418,2.418,0,0,0-2.331,1.422,2.408,2.408,0,0,0-.043,1.891,2.483,2.483,0,0,0,1.3,1.333l.133.06.19.031a10.405,10.405,0,0,1,4.587,2.044,15.373,15.373,0,0,1,1.16,1.214h0a1.45,1.45,0,0,0,1.932.26h0l5.871-4.051A1.449,1.449,0,0,0,223.893,506.583Zm-1.93,1.332-4.5,3.1a.878.878,0,0,1-1.14-.125c-.219-.234-.492-.514-.784-.783A11.818,11.818,0,0,0,210.2,507.7a.974.974,0,1,1,.8-1.775s.672.1,1.574.331a.56.56,0,0,0,.611-.844l-.007-.009-4.861-7.045a.646.646,0,0,1,.165-.9l.036-.023a.661.661,0,0,1,.875.206l3.825,5.542a.7.7,0,0,0,.98.18h0a.7.7,0,0,0,.18-.98l-1.5-2.178a.474.474,0,0,1,.121-.659l.012-.008a.487.487,0,0,1,.658.145l1.491,2.161a.7.7,0,0,0,.981.18h0a.7.7,0,0,0,.18-.98l-1.089-1.578a.474.474,0,0,1,.121-.659l.012-.008a.487.487,0,0,1,.658.145l1.508,2.186a.7.7,0,0,0,.98.18l.011-.008a.72.72,0,0,0,.156-.992l-.92-1.333a.477.477,0,0,1,.1-.653l.013-.01a.477.477,0,0,1,.664.124l2.2,3.183a2.8,2.8,0,0,1,.473,1.472,4.378,4.378,0,0,0,.769,3.266l.212.308A.9.9,0,0,1,221.963,507.915Z" transform="translate(-203.099 -492.607)" fill="#777"/>
  <path id="Path_18" data-name="Path 18" d="M200.417,482.427a.552.552,0,0,0,.141-.768l-1.028-1.489a.552.552,0,1,0-.909.627l1.028,1.489A.552.552,0,0,0,200.417,482.427Z" transform="translate(-196.355 -479.525)" fill="#777"/>
  <path id="Path_19" data-name="Path 19" d="M222.427,480.37a.552.552,0,0,0,.736-.262l.776-1.634a.552.552,0,0,0-1-.473l-.776,1.635A.552.552,0,0,0,222.427,480.37Z" transform="translate(-215.677 -477.684)" fill="#777"/>
  <path id="Path_20" data-name="Path 20" d="M188.842,504.4l-1.8.145a.552.552,0,0,0,.089,1.1l1.8-.145a.552.552,0,0,0-.089-1.1Z" transform="translate(-186.531 -499.565)" fill="#777"/>
</svg>
