<svg xmlns="http://www.w3.org/2000/svg" width="15.333" height="17.341" viewBox="0 0 15.333 17.341">
  <g id="Group_68" data-name="Group 68" transform="translate(-1150.668 -495.877)">
    <g id="Group_67" data-name="Group 67" transform="translate(1150.668 495.877)">
      <path id="Path_57" data-name="Path 57" d="M1164.477,511.2h1.27a.254.254,0,0,0,.254-.254V509.2a.254.254,0,0,0-.254-.254h-14.825a.254.254,0,0,0-.254.254v1.744a.254.254,0,0,0,.254.254h13.554Z" transform="translate(-1150.668 -506.6)" fill="#fff"/>
      <path id="Path_58" data-name="Path 58" d="M1183.827,498.645v-2.451a.316.316,0,0,0-.317-.316h-4.734a.316.316,0,0,0-.316.316v2.451h1.055v-1.853h3.256v1.853Z" transform="translate(-1173.477 -495.877)" fill="#fff"/>
    </g>
    <path id="Path_59" data-name="Path 59" d="M1158.83,526.856,1160,538.643h10.208l1.026-11.787Zm2.619,10.5-.92-9.25h1.8l.2,9.25Zm4.3,0h-1.434V528.1h1.434Zm2.958,0h-1.081l.088-9.25h1.8Z" transform="translate(-6.698 -25.424)" fill="#fff"/>
  </g>
</svg>
