<svg id="Group_40" data-name="Group 40" xmlns="http://www.w3.org/2000/svg" width="24.482" height="18.73" viewBox="0 0 24.482 18.73">
  <path id="Path_27" data-name="Path 27" d="M1175.04,179.718l-.12-.106a5.394,5.394,0,1,0-8.906,0l-.12.106a8.176,8.176,0,0,0-2.683,6.111v.382l.249.29a9.048,9.048,0,0,0,14.018,0l.249-.29v-.382A8.175,8.175,0,0,0,1175.04,179.718Zm-4.573-7.6a4.42,4.42,0,1,1-4.369,4.42A4.394,4.394,0,0,1,1170.467,172.123Zm0,16.678a8.2,8.2,0,0,1-6.23-2.968,7.157,7.157,0,0,1,2.338-5.346,5.463,5.463,0,0,0,7.785,0,7.157,7.157,0,0,1,2.338,5.346A8.2,8.2,0,0,1,1170.467,188.8Z" transform="translate(-1158.261 -171.097)" fill="#777"/>
  <path id="Path_28" data-name="Path 28" d="M1236.445,179.378a3.2,3.2,0,0,0,1.244.251,3.281,3.281,0,0,0,0-6.562,3.222,3.222,0,0,0-2.595,1.319,5.079,5.079,0,0,1,1.351,4.992Z" transform="translate(-1217.832 -172.73)" fill="#777"/>
  <path id="Path_29" data-name="Path 29" d="M1243.136,209.3a4.046,4.046,0,0,1-4.425.906,5.1,5.1,0,0,1-.53.893l.283.251a7.6,7.6,0,0,1,2.356,4.088,6.146,6.146,0,0,0,4.051-2.17A5.312,5.312,0,0,0,1243.136,209.3Z" transform="translate(-1220.39 -202.76)" fill="#777"/>
  <path id="Path_30" data-name="Path 30" d="M1145.638,179.629a3.2,3.2,0,0,0,1.244-.251,5.079,5.079,0,0,1,1.351-4.992,3.222,3.222,0,0,0-2.595-1.319,3.281,3.281,0,0,0,0,6.562Z" transform="translate(-1141.013 -172.73)" fill="#777"/>
  <path id="Path_31" data-name="Path 31" d="M1140.735,211.355l.284-.251a5.1,5.1,0,0,1-.53-.893,4.045,4.045,0,0,1-4.425-.906,5.313,5.313,0,0,0-1.735,3.969,6.147,6.147,0,0,0,4.051,2.17A7.6,7.6,0,0,1,1140.735,211.355Z" transform="translate(-1134.328 -202.76)" fill="#777"/>
</svg>
