<svg xmlns="http://www.w3.org/2000/svg" width="25.735" height="22" viewBox="0 0 25.735 22">
  <g id="Group_27" data-name="Group 27" transform="translate(-1381.431 -171.097)">
    <path id="Path_2" data-name="Path 2" d="M1391.717,210.308h-6.176v2.257h-4.11v1.662h4.11v2.257h6.176v-2.257h15.449v-1.662h-15.449Zm-1.8,4.38h-2.585V212.1h2.585Z" transform="translate(0 -31.299)" fill="#095179"/>
    <path id="Path_3" data-name="Path 3" d="M1402.075,173.354V171.1H1395.9v2.257h-14.468v1.662H1395.9v2.257h6.176v-2.257h5.091v-1.662Zm-1.8,2.124h-2.585v-2.585h2.585Z" fill="#095179"/>
    <path id="Path_4" data-name="Path 4" d="M1402.075,249.519H1395.9v2.257h-14.468v1.662H1395.9v2.257h6.176v-2.257h5.091v-1.662h-5.091Zm-1.8,4.38h-2.585v-2.585h2.585Z" transform="translate(0 -62.598)" fill="#095179"/>
  </g>
</svg>
