<svg id="Component_3_1" data-name="Component 3 – 1" xmlns="http://www.w3.org/2000/svg" width="30" height="20" viewBox="0 0 30 20">
  <path id="Path_5" data-name="Path 5" d="M457.051,477.357v-.019a1.133,1.133,0,0,0-.346-.816,1.188,1.188,0,0,0-.836-.338l-27.636.03a1.17,1.17,0,0,0-1.182,1.152v.019a1.13,1.13,0,0,0,.345.815,1.186,1.186,0,0,0,.835.338h0l27.64-.03A1.168,1.168,0,0,0,457.051,477.357Z" transform="translate(-427.051 -476.184)" fill="#fff"/>
  <path id="Path_6" data-name="Path 6" d="M491.772,527l-19.374.03a1.156,1.156,0,0,0-1.154,1.153v.018a1.151,1.151,0,0,0,1.152,1.154l19.377-.03a1.154,1.154,0,0,0,1.153-1.151v-.019A1.153,1.153,0,0,0,491.772,527Z" transform="translate(-462.924 -518.181)" fill="#fff"/>
  <path id="Path_7" data-name="Path 7" d="M528.358,577.824l-11.77.03a1.156,1.156,0,0,0-1.154,1.153v.018a1.151,1.151,0,0,0,1.152,1.153l11.772-.03A1.154,1.154,0,0,0,529.511,579v-.019a1.153,1.153,0,0,0-1.153-1.154Z" transform="translate(-499.511 -560.177)" fill="#fff"/>
</svg>
