<svg id="Group_39" data-name="Group 39" xmlns="http://www.w3.org/2000/svg" width="25" height="19.241" viewBox="0 0 25 19.241">
  <path id="Path_24" data-name="Path 24" d="M1532.352,477.684h-22.084a1.458,1.458,0,0,0-1.458,1.458v12.7a1.458,1.458,0,0,0,1.458,1.458h14.966v3.626l2.533-1.268,5.077-2.543.161-.081a1.458,1.458,0,0,0,.805-1.3V479.142A1.458,1.458,0,0,0,1532.352,477.684Zm-.292,12.965a1.458,1.458,0,0,1-.805,1.3l-4.272,2.14V491.55h-15.549a.875.875,0,0,1-.875-.875V480.308a.875.875,0,0,1,.875-.875h19.752a.875.875,0,0,1,.875.875Z" transform="translate(-1508.81 -477.684)" fill="#777"/>
  <g id="Group_39-2" data-name="Group 39" transform="translate(4.684 4.869)">
    <rect id="Rectangle_23" data-name="Rectangle 23" width="15.633" height="1.749" rx="0.875" fill="#777"/>
    <rect id="Rectangle_24" data-name="Rectangle 24" width="15.633" height="1.749" rx="0.875" transform="translate(0 4.128)" fill="#777"/>
  </g>
</svg>
