<svg id="Group_41" data-name="Group 41" xmlns="http://www.w3.org/2000/svg" width="17.891" height="19.934" viewBox="0 0 17.891 19.934">
  <path id="Path_25" data-name="Path 25" d="M1289.316,484.53l1.6-2.354a4.19,4.19,0,0,0,.721-2.289l.022-1.479a.712.712,0,0,0-1.2-.527l-7.961,7.555a1.6,1.6,0,0,1-1.1.44h-.021a1.45,1.45,0,0,0-1.45,1.45v6.892a1.45,1.45,0,0,0,1.45,1.45h.391a1.6,1.6,0,0,1,.428.058l6.31,1.749a3.868,3.868,0,0,0,4.81-2.893l1.414-6.393a1.885,1.885,0,0,0-1.363-2.231l-3.886-1.017A.27.27,0,0,1,1289.316,484.53Z" transform="translate(-1276.874 -477.684)" fill="#777"/>
  <path id="Path_26" data-name="Path 26" d="M1264.374,526.015a2.038,2.038,0,0,1,.48-1.309,1.251,1.251,0,0,0-.665-.193h-.776a1.263,1.263,0,0,0-1.263,1.263v7.606a1.263,1.263,0,0,0,1.263,1.263h.776a1.253,1.253,0,0,0,.667-.194,2.038,2.038,0,0,1-.482-1.308Z" transform="translate(-1262.15 -516.491)" fill="#777"/>
</svg>
