<svg id="Component_1_2" data-name="Component 1 – 2" xmlns="http://www.w3.org/2000/svg" width="22" height="22" viewBox="0 0 22 22">
  <path id="Path_1" data-name="Path 1" d="M1811.037,496.844l-4.146-4.133a9.546,9.546,0,1,0-2.352,2.355l4.147,4.134a1.654,1.654,0,0,0,2.339,0l.011-.011a1.658,1.658,0,0,0,0-2.345Zm-5.756-9.606a6.154,6.154,0,0,1-1.346,3.858,6.248,6.248,0,0,1-1.014,1.015,6.141,6.141,0,0,1-3.853,1.347,6.219,6.219,0,1,1,6.214-6.219Z" transform="translate(-1789.522 -477.684)" fill="#095179"/>
</svg>
